<?xml version="1.0" encoding="UTF-8"?>
<svg id="Layer_1" xmlns="http://www.w3.org/2000/svg" version="1.1" viewBox="0 0 1080.1 1080">
  <!-- Generator: Adobe Illustrator 29.2.1, SVG Export Plug-In . SVG Version: 2.1.0 Build 116)  -->
  <defs>
    <style>
      .st0 {
        fill: #121212;
      }
    </style>
  </defs>
  <path class="st0" d="M845.8,349.9c-1.3,0-2.5,0-3.8,0-18.2,0-35.9,2.1-52.7,6.1,38.1,51.5,60.6,115.1,60.6,184.1s-22.5,132.5-60.6,184c16.8,4,34.5,6.1,52.8,6.1s2.5,0,3.8,0c34.4-55.1,54.3-120.3,54.3-190s-19.9-134.9-54.3-190.1ZM723.8,789.4c-51.4,38-114.9,60.4-183.7,60.4s-132.8-22.6-184.3-60.8c-4,17-6.2,34.8-6.2,53.2s0,2.2,0,3.3c55.2,34.5,120.5,54.4,190.4,54.4s134.7-19.8,189.8-54c0-1.2,0-2.5,0-3.7,0-18.3-2.1-36-6.1-52.8ZM729.8,234c-55.1-34.3-120.1-54-189.8-54s-135.2,19.9-190.4,54.4c0,1.3,0,2.6,0,3.9,0,18.2,2.1,35.9,6,52.7,51.5-38.2,115.3-60.8,184.4-60.8s132.4,22.4,183.8,60.4c3.9-16.7,6-34.2,6-52.3s0-2.9,0-4.3ZM230.2,540c0-68.9,22.5-132.6,60.6-184.1-16.8-4-34.5-6.1-52.7-6.1s-2.5,0-3.8,0c-34.4,55.2-54.3,120.3-54.3,190.1s19.9,134.9,54.3,190c1.3,0,2.5,0,3.8,0,18.2,0,35.9-2.1,52.8-6.1-38.1-51.5-60.6-115.1-60.6-184Z"/>
  <path class="st0" d="M695.3,345.1c-9.6,11-20.1,21-31.5,29.8-35.1,27.3-77.9,43.3-124.1,43.3s-88.8-15.9-123.8-43.1c-11.4-8.7-21.9-18.7-31.5-29.7,42.6-34.2,96.7-54.6,155.6-54.6s112.7,20.3,155.3,54.3Z"/>
  <path class="st0" d="M789.2,540c0,58.9-20.4,113-54.6,155.6-11-9.6-21-20.1-29.8-31.4-27.3-35.1-43.4-78-43.4-124.2s16-89,43.4-124.1c8.8-11.4,18.7-21.9,29.8-31.4,34.2,42.6,54.6,96.8,54.6,155.6Z"/>
  <path class="st0" d="M417.9,540c0,46-15.9,88.7-43.1,123.8-8.8,11.4-18.7,21.9-29.7,31.6-34-42.6-54.3-96.5-54.3-155.3s20.3-112.7,54.3-155.3c11,9.6,21,20.2,29.8,31.5,27.1,35,43,77.7,43,123.7Z"/>
  <path class="st0" d="M695.3,734.9c-42.6,34-96.5,54.3-155.2,54.3s-113-20.4-155.6-54.6c9.6-11,20.2-21,31.5-29.7,35-27.2,77.7-43.1,123.8-43.1s89,16,124.1,43.3c11.3,8.8,21.9,18.7,31.4,29.7Z"/>
</svg>